Coordinates
version=1
nRows=43
nColumns=12
inDegrees=yes

Units are S.I. units (second, meters, Newtons, ...)
Angles are in degrees

endheader
time	SC_y	SC_z	SC_x	AC_y	AC_z	AC_x	GH_y	GH_z	GH_yy	EL_x	PS_y
       0.0              -35.24          10.24          46.64          42.12         -7.761          4.848         -171.6          37.75          109.9          43.95          153.4
  0.009755              -35.24          10.24          46.65          42.12         -7.759          4.846         -171.6          37.75          109.9          43.95          153.4
   0.01951              -35.24          10.24          46.65          42.12         -7.757          4.843         -171.6          37.75          109.9          43.95          153.4
   0.02927              -35.24          10.24          46.65          42.12         -7.755           4.84         -171.6          37.75          109.9          43.95          153.4
   0.03902              -35.23          10.24          46.65          42.12         -7.753          4.836         -171.6          37.75          109.8          43.95          153.4
   0.04878              -35.23          10.24          46.65          42.12          -7.75          4.833         -171.5          37.74          109.8          43.94          153.4
   0.05853              -35.23          10.24          46.65          42.12         -7.748          4.829         -171.5          37.74          109.8          43.94          153.4
   0.06829              -35.23          10.24          46.66          42.12         -7.745          4.825         -171.5          37.74          109.8          43.94          153.4
   0.07804              -35.22          10.24          46.66          42.12         -7.742          4.821         -171.5          37.73          109.7          43.94          153.4
    0.0878              -35.22          10.24          46.66          42.13         -7.739          4.816         -171.5          37.73          109.7          43.94          153.4
   0.09755              -35.22          10.24          46.66          42.13         -7.735          4.811         -171.5          37.73          109.7          43.93          153.4
    0.1073              -35.21          10.24          46.67          42.13         -7.732          4.806         -171.5          37.72          109.7          43.93          153.4
    0.1171              -35.21          10.24          46.67          42.13         -7.728            4.8         -171.4          37.72          109.6          43.93          153.4
    0.1268               -35.2          10.24          46.67          42.13         -7.723          4.794         -171.4          37.72          109.6          43.93          153.4
    0.1366               -35.2          10.24          46.68          42.13         -7.719          4.787         -171.4          37.71          109.5          43.92          153.4
    0.1463              -35.19          10.24          46.68          42.13         -7.714           4.78         -171.4          37.71          109.5          43.92          153.4
    0.1561              -35.19          10.24          46.68          42.13         -7.708          4.772         -171.3           37.7          109.5          43.92          153.4
    0.1658              -35.18          10.24          46.69          42.13         -7.702          4.764         -171.3           37.7          109.4          43.91          153.4
    0.1756              -35.17          10.24          46.69          42.13         -7.696          4.754         -171.3          37.69          109.3          43.91          153.4
    0.1854              -35.16          10.24           46.7          42.13         -7.689          4.744         -171.2          37.68          109.3           43.9          153.4
    0.1951              -35.16          10.24           46.7          42.13         -7.681          4.733         -171.2          37.67          109.2           43.9          153.4
    0.2049              -35.15          10.24          46.71          42.14         -7.672           4.72         -171.2          37.67          109.1          43.89          153.4
    0.2146              -35.14          10.24          46.72          42.14         -7.663          4.707         -171.1          37.66          109.1          43.89          153.4
    0.2244              -35.13          10.24          46.72          42.14         -7.652          4.692         -171.1          37.65          109.0          43.88          153.4
    0.2341              -35.11          10.24          46.73          42.14         -7.641          4.675         -171.0          37.63          108.9          43.87          153.4
    0.2439               -35.1          10.24          46.74          42.14         -7.628          4.656         -170.9          37.62          108.7          43.87          153.4
    0.2536              -35.08          10.24          46.75          42.14         -7.613          4.635         -170.9          37.61          108.6          43.86          153.4
    0.2634              -35.06          10.24          46.77          42.15         -7.596          4.611         -170.8          37.59          108.5          43.85          153.4
    0.2732              -35.04          10.25          46.78          42.15         -7.578          4.584         -170.7          37.57          108.3          43.83          153.4
    0.2829              -35.02          10.25          46.79          42.15         -7.557          4.554         -170.6          37.55          108.1          43.82          153.5
    0.2927               -35.0          10.25          46.81          42.16         -7.533          4.519         -170.4          37.53          107.9           43.8          153.5
    0.3024              -34.97          10.25          46.83          42.16         -7.505          4.479         -170.3           37.5          107.7          43.79          153.5
    0.3122              -34.93          10.25          46.86          42.16         -7.473          4.433         -170.1          37.47          107.4          43.77          153.5
    0.3219              -34.89          10.25          46.88          42.17         -7.436           4.38         -170.0          37.43          107.1          43.74          153.5
    0.3317              -34.84          10.25          46.92          42.18         -7.393          4.317         -169.7          37.39          106.7          43.71          153.5
    0.3414              -34.79          10.25          46.95          42.18         -7.342          4.244         -169.5          37.34          106.2          43.68          153.5
    0.3512              -34.72          10.25           47.0          42.19         -7.281          4.156         -169.2          37.28          105.7          43.64          153.5
     0.361              -34.64          10.26          47.05           42.2         -7.208          4.051         -168.8           37.2          105.1           43.6          153.5
    0.3707              -34.55          10.26          47.12          42.22          -7.12          3.924         -168.3          37.12          104.3          43.54          153.5
    0.3805              -34.43          10.26           47.2          42.23         -7.012          3.769         -167.8          37.01          103.3          43.47          153.5
    0.3902              -34.29          10.26          47.29          42.25         -6.879          3.577         -167.1          36.88          102.2          43.38          153.6
       0.4              -34.11          10.27          47.42          42.27         -6.714          3.338         -166.3          36.71          100.7          43.28          153.6
    0.4097              -33.88          10.28          47.57           42.3         -6.505          3.037         -165.2          36.51          98.87          43.14          153.6
